<svg class="svg-icon" style="width: 1em; height: 1em;vertical-align: middle;fill: currentColor;overflow: hidden;" viewBox="0 0 1024 1024" version="1.1" xmlns="http://www.w3.org/2000/svg"><path d="M410.233734 273.9053c-191.720509 0-347.848383 153.703661-347.848383 342.190523 0 188.481745 156.127873 342.18336 347.848383 342.18336s347.847359-153.700591 347.847359-342.18336c0-78.471213-26.691919-152.893202-76.846202-214.375485l-10.516518-12.94073 228.124628-221.656309L898.843 359.654266l59.862389 0L958.70539 62.770626 646.446573 62.770626l0 62.290695 211.139791 0L624.608196 346.713536l-12.136412-8.897647C552.609395 296.55823 483.04197 273.9053 410.233734 273.9053L410.233734 273.9053zM410.233734 896.798946c-156.937309 0-283.941887-125.386732-283.941887-279.899828 0-154.506956 127.815037-279.892665 283.941887-279.892665 156.937309 0 283.942911 125.385708 283.942911 279.892665C694.986079 770.602779 567.171042 896.798946 410.233734 896.798946L410.233734 896.798946zM410.233734 896.798946"  /></svg>